<svg xmlns="http://www.w3.org/2000/svg" width="128" height="104" viewBox="-64 -71 128 104"><ellipse cx="0" cy="0" rx="36.224999999999994" ry="18.9" fill="rgba(0,0,0,0.28)"/><polygon points="-63,-38 0,-6.5 0,31.5 -63,0" fill="#242e3f"/><polygon points="63,-38 0,-6.5 0,31.5 63,0" fill="#2e3b52"/><polygon points="0,-69.5 63,-38 0,-6.5 -63,-38" fill="#3a4a66"/><polygon points="-48.83,-15.31 -33.08,-7.44 -33.08,9.96 -48.83,2.09" fill="rgba(10,16,26,0.5)"/><polygon points="48.83,-15.31 33.08,-7.44 33.08,9.96 48.83,2.09" fill="rgba(255,221,160,0.92)"/><polygon points="-20.48,-1.14 -4.73,6.74 -4.73,24.14 -20.48,16.26" fill="rgba(10,16,26,0.5)"/><polygon points="20.48,-1.14 4.73,6.74 4.73,24.14 20.48,16.26" fill="rgba(255,221,160,0.92)"/><polygon points="31.5,-53.75 31.5,-22.25 -31.5,-22.25 -31.5,-53.75" fill="#293447"/><polygon points="25.2,-53.6 25.2,-28.4 -25.2,-28.4 -25.2,-53.6" fill="#415372"/><polygon points="-8.19,-42.5 4.41,-36.2 4.41,-26.2 -8.19,-32.5" fill="#1e2736"/><polygon points="17.01,-42.5 4.41,-36.2 4.41,-26.2 17.01,-32.5" fill="#273246"/><polygon points="4.41,-48.8 17.01,-42.5 4.41,-36.2 -8.19,-42.5" fill="#313f57"/></svg>
