<svg xmlns="http://www.w3.org/2000/svg" width="126" height="114" viewBox="-63 -82 126 114"><ellipse cx="0" cy="0" rx="35.19" ry="18.36" fill="rgba(0,0,0,0.28)"/><polygon points="-61.2,-50 0,-19.4 0,30.6 -61.2,0" fill="#223230"/><polygon points="61.2,-50 0,-19.4 0,30.6 61.2,0" fill="#2c413e"/><polygon points="0,-80.6 61.2,-50 0,-19.4 -61.2,-50" fill="#37514e"/><polygon points="-47.43,-10.29 -32.13,-2.65 -32.13,9.53 -47.43,1.89" fill="rgba(10,16,26,0.5)"/><polygon points="47.43,-10.29 32.13,-2.65 32.13,9.53 47.43,1.89" fill="rgba(10,16,26,0.5)"/><polygon points="-19.89,3.48 -4.59,11.13 -4.59,23.31 -19.89,15.66" fill="rgba(255,221,160,0.92)"/><polygon points="19.89,3.48 4.59,11.13 4.59,23.31 19.89,15.66" fill="rgba(255,221,160,0.92)"/><polygon points="-47.43,-31.29 -32.13,-23.65 -32.13,-11.47 -47.43,-19.11" fill="rgba(10,16,26,0.5)"/><polygon points="47.43,-31.29 32.13,-23.65 32.13,-11.47 47.43,-19.11" fill="rgba(10,16,26,0.5)"/><polygon points="-19.89,-17.52 -4.59,-9.87 -4.59,2.31 -19.89,-5.34" fill="rgba(255,221,160,0.92)"/><polygon points="19.89,-17.52 4.59,-9.87 4.59,2.31 19.89,-5.34" fill="rgba(10,16,26,0.5)"/><polygon points="30.6,-65.3 30.6,-34.7 -30.6,-34.7 -30.6,-65.3" fill="#273937"/><polygon points="24.48,-65.24 24.48,-40.76 -24.48,-40.76 -24.48,-65.24" fill="#3e5b57"/><polygon points="-7.96,-54.74 4.28,-48.62 4.28,-38.62 -7.96,-44.74" fill="#1d2b29"/><polygon points="16.52,-54.74 4.28,-48.62 4.28,-38.62 16.52,-44.74" fill="#263735"/><polygon points="4.28,-60.86 16.52,-54.74 4.28,-48.62 -7.96,-54.74" fill="#2f4542"/></svg>
