<svg xmlns="http://www.w3.org/2000/svg" width="118" height="112" viewBox="-59 -82 118 112"><ellipse cx="0" cy="0" rx="33.12" ry="17.28" fill="rgba(0,0,0,0.28)"/><polygon points="-57.6,-52 0,-23.2 0,28.8 -57.6,0" fill="#717783"/><polygon points="57.6,-52 0,-23.2 0,28.8 57.6,0" fill="#929aaa"/><polygon points="0,-80.8 57.6,-52 0,-23.2 -57.6,-52" fill="#b6c0d4"/><polygon points="-44.64,-11.28 -30.24,-4.08 -30.24,8.68 -44.64,1.48" fill="rgba(110,128,155,0.42)"/><polygon points="44.64,-11.28 30.24,-4.08 30.24,8.68 44.64,1.48" fill="rgba(110,128,155,0.42)"/><polygon points="-18.72,1.68 -4.32,8.88 -4.32,21.64 -18.72,14.44" fill="rgba(250,228,160,0.85)"/><polygon points="18.72,1.68 4.32,8.88 4.32,21.64 18.72,14.44" fill="rgba(250,228,160,0.85)"/><polygon points="-44.64,-33.28 -30.24,-26.08 -30.24,-13.32 -44.64,-20.52" fill="rgba(250,228,160,0.85)"/><polygon points="44.64,-33.28 30.24,-26.08 30.24,-13.32 44.64,-20.52" fill="rgba(110,128,155,0.42)"/><polygon points="-18.72,-20.32 -4.32,-13.12 -4.32,-0.36 -18.72,-7.56" fill="rgba(110,128,155,0.42)"/><polygon points="18.72,-20.32 4.32,-13.12 4.32,-0.36 18.72,-7.56" fill="rgba(110,128,155,0.42)"/><polygon points="28.8,-66.4 28.8,-37.6 -28.8,-37.6 -28.8,-66.4" fill="#7f8694"/><polygon points="23.04,-66.52 23.04,-43.48 -23.04,-43.48 -23.04,-66.52" fill="#ccd7ed"/><polygon points="-7.49,-57.22 4.03,-51.46 4.03,-41.46 -7.49,-47.22" fill="#606570"/><polygon points="15.55,-57.22 4.03,-51.46 4.03,-41.46 15.55,-47.22" fill="#7c8290"/><polygon points="4.03,-62.98 15.55,-57.22 4.03,-51.46 -7.49,-57.22" fill="#9ba3b4"/></svg>
