<svg xmlns="http://www.w3.org/2000/svg" width="132" height="102" viewBox="-66 -68 132 102"><ellipse cx="0" cy="0" rx="37.26" ry="19.439999999999998" fill="rgba(0,0,0,0.28)"/><polygon points="-64.8,-34 0,-1.6 0,32.4 -64.8,0" fill="#4c3e32"/><polygon points="64.8,-34 0,-1.6 0,32.4 64.8,0" fill="#625040"/><polygon points="0,-66.4 64.8,-34 0,-1.6 -64.8,-34" fill="#7a6450"/><polygon points="-50.22,-12.79 -34.02,-4.69 -34.02,10.39 -50.22,2.29" fill="rgba(10,16,26,0.5)"/><polygon points="50.22,-12.79 34.02,-4.69 34.02,10.39 50.22,2.29" fill="rgba(255,221,160,0.92)"/><polygon points="-21.06,1.79 -4.86,9.89 -4.86,24.97 -21.06,16.87" fill="rgba(255,221,160,0.92)"/><polygon points="21.06,1.79 4.86,9.89 4.86,24.97 21.06,16.87" fill="rgba(10,16,26,0.5)"/><polygon points="32.4,-50.2 32.4,-17.8 -32.4,-17.8 -32.4,-50.2" fill="#554638"/><polygon points="25.92,-49.96 25.92,-24.04 -25.92,-24.04 -25.92,-49.96" fill="#89705a"/><polygon points="-8.42,-38.25 4.54,-31.77 4.54,-21.77 -8.42,-28.25" fill="#40352a"/><polygon points="17.5,-38.25 4.54,-31.77 4.54,-21.77 17.5,-28.25" fill="#534436"/><polygon points="4.54,-44.73 17.5,-38.25 4.54,-31.77 -8.42,-38.25" fill="#685544"/></svg>
