<svg xmlns="http://www.w3.org/2000/svg" width="132" height="102" viewBox="-66 -68 132 102"><ellipse cx="0" cy="0" rx="37.26" ry="19.439999999999998" fill="rgba(0,0,0,0.28)"/><polygon points="-64.8,-34 0,-1.6 0,32.4 -64.8,0" fill="#857b6b"/><polygon points="64.8,-34 0,-1.6 0,32.4 64.8,0" fill="#ab9e8a"/><polygon points="0,-66.4 64.8,-34 0,-1.6 -64.8,-34" fill="#d6c6ac"/><polygon points="-50.22,-12.79 -34.02,-4.69 -34.02,10.39 -50.22,2.29" fill="rgba(110,128,155,0.42)"/><polygon points="50.22,-12.79 34.02,-4.69 34.02,10.39 50.22,2.29" fill="rgba(250,228,160,0.85)"/><polygon points="-21.06,1.79 -4.86,9.89 -4.86,24.97 -21.06,16.87" fill="rgba(250,228,160,0.85)"/><polygon points="21.06,1.79 4.86,9.89 4.86,24.97 21.06,16.87" fill="rgba(110,128,155,0.42)"/><polygon points="32.4,-50.2 32.4,-17.8 -32.4,-17.8 -32.4,-50.2" fill="#968b78"/><polygon points="25.92,-49.96 25.92,-24.04 -25.92,-24.04 -25.92,-49.96" fill="#f0dec1"/><polygon points="-8.42,-38.25 4.54,-31.77 4.54,-21.77 -8.42,-28.25" fill="#71685b"/><polygon points="17.5,-38.25 4.54,-31.77 4.54,-21.77 17.5,-28.25" fill="#928675"/><polygon points="4.54,-44.73 17.5,-38.25 4.54,-31.77 -8.42,-38.25" fill="#b6a892"/></svg>
