<svg xmlns="http://www.w3.org/2000/svg" width="128" height="104" viewBox="-64 -71 128 104"><ellipse cx="0" cy="0" rx="36.224999999999994" ry="18.9" fill="rgba(0,0,0,0.28)"/><polygon points="-63,-38 0,-6.5 0,31.5 -63,0" fill="#727885"/><polygon points="63,-38 0,-6.5 0,31.5 63,0" fill="#939bab"/><polygon points="0,-69.5 63,-38 0,-6.5 -63,-38" fill="#b8c2d6"/><polygon points="-48.83,-15.31 -33.08,-7.44 -33.08,9.96 -48.83,2.09" fill="rgba(110,128,155,0.42)"/><polygon points="48.83,-15.31 33.08,-7.44 33.08,9.96 48.83,2.09" fill="rgba(250,228,160,0.85)"/><polygon points="-20.48,-1.14 -4.73,6.74 -4.73,24.14 -20.48,16.26" fill="rgba(110,128,155,0.42)"/><polygon points="20.48,-1.14 4.73,6.74 4.73,24.14 20.48,16.26" fill="rgba(250,228,160,0.85)"/><polygon points="31.5,-53.75 31.5,-22.25 -31.5,-22.25 -31.5,-53.75" fill="#818896"/><polygon points="25.2,-53.6 25.2,-28.4 -25.2,-28.4 -25.2,-53.6" fill="#ced9f0"/><polygon points="-8.19,-42.5 4.41,-36.2 4.41,-26.2 -8.19,-32.5" fill="#616671"/><polygon points="17.01,-42.5 4.41,-36.2 4.41,-26.2 17.01,-32.5" fill="#7d8492"/><polygon points="4.41,-48.8 17.01,-42.5 4.41,-36.2 -8.19,-42.5" fill="#9ca5b6"/></svg>
