<svg xmlns="http://www.w3.org/2000/svg" width="122" height="132" viewBox="-61 -101 122 132"><ellipse cx="0" cy="0" rx="34.154999999999994" ry="17.82" fill="rgba(0,0,0,0.28)"/><polygon points="-59.4,-70 0,-40.3 0,29.7 -59.4,0" fill="#6f7688"/><polygon points="59.4,-70 0,-40.3 0,29.7 59.4,0" fill="#8f98af"/><polygon points="0,-99.7 59.4,-70 0,-40.3 -59.4,-70" fill="#b3bedb"/><polygon points="-46.03,-10.3 -31.18,-2.88 -31.18,9.11 -46.03,1.68" fill="rgba(250,228,160,0.85)"/><polygon points="46.03,-10.3 31.18,-2.88 31.18,9.11 46.03,1.68" fill="rgba(110,128,155,0.42)"/><polygon points="-19.3,3.06 -4.45,10.49 -4.45,22.47 -19.3,15.05" fill="rgba(250,228,160,0.85)"/><polygon points="19.3,3.06 4.45,10.49 4.45,22.47 19.3,15.05" fill="rgba(110,128,155,0.42)"/><polygon points="-46.03,-30.97 -31.18,-23.55 -31.18,-11.56 -46.03,-18.98" fill="rgba(250,228,160,0.85)"/><polygon points="46.03,-30.97 31.18,-23.55 31.18,-11.56 46.03,-18.98" fill="rgba(110,128,155,0.42)"/><polygon points="-19.3,-17.61 -4.45,-10.18 -4.45,1.81 -19.3,-5.62" fill="rgba(250,228,160,0.85)"/><polygon points="19.3,-17.61 4.45,-10.18 4.45,1.81 19.3,-5.62" fill="rgba(110,128,155,0.42)"/><polygon points="-46.03,-51.64 -31.18,-44.21 -31.18,-32.23 -46.03,-39.65" fill="rgba(110,128,155,0.42)"/><polygon points="46.03,-51.64 31.18,-44.21 31.18,-32.23 46.03,-39.65" fill="rgba(110,128,155,0.42)"/><polygon points="-19.3,-38.27 -4.45,-30.85 -4.45,-18.86 -19.3,-26.29" fill="rgba(110,128,155,0.42)"/><polygon points="19.3,-38.27 4.45,-30.85 4.45,-18.86 19.3,-26.29" fill="rgba(110,128,155,0.42)"/><polygon points="29.7,-84.85 29.7,-55.15 -29.7,-55.15 -29.7,-84.85" fill="#7d8599"/><polygon points="23.76,-84.88 23.76,-61.12 -23.76,-61.12 -23.76,-84.88" fill="#c8d5f5"/><polygon points="-7.72,-74.98 4.16,-69.04 4.16,-59.04 -7.72,-64.98" fill="#5e6473"/><polygon points="16.04,-74.98 4.16,-69.04 4.16,-59.04 16.04,-64.98" fill="#7a8295"/><polygon points="4.16,-80.92 16.04,-74.98 4.16,-69.04 -7.72,-74.98" fill="#98a2ba"/></svg>
