<svg xmlns="http://www.w3.org/2000/svg" width="126" height="142" viewBox="-63 -110 126 142"><ellipse cx="0" cy="0" rx="35.19" ry="18.36" fill="rgba(0,0,0,0.28)"/><polygon points="-61.2,-78 0,-47.4 0,30.6 -61.2,0" fill="#263252"/><polygon points="61.2,-78 0,-47.4 0,30.6 61.2,0" fill="#31416a"/><polygon points="0,-108.6 61.2,-78 0,-47.4 -61.2,-78" fill="#3d5184"/><polygon points="-47.43,-11.65 -32.13,-4 -32.13,9.53 -47.43,1.89" fill="rgba(255,221,160,0.92)"/><polygon points="47.43,-11.65 32.13,-4 32.13,9.53 47.43,1.89" fill="rgba(255,221,160,0.92)"/><polygon points="-19.89,2.12 -4.59,9.77 -4.59,23.31 -19.89,15.66" fill="rgba(10,16,26,0.5)"/><polygon points="19.89,2.12 4.59,9.77 4.59,23.31 19.89,15.66" fill="rgba(255,221,160,0.92)"/><polygon points="-47.43,-34.98 -32.13,-27.33 -32.13,-13.8 -47.43,-21.45" fill="rgba(10,16,26,0.5)"/><polygon points="47.43,-34.98 32.13,-27.33 32.13,-13.8 47.43,-21.45" fill="rgba(10,16,26,0.5)"/><polygon points="-19.89,-21.21 -4.59,-13.56 -4.59,-0.03 -19.89,-7.68" fill="rgba(255,221,160,0.92)"/><polygon points="19.89,-21.21 4.59,-13.56 4.59,-0.03 19.89,-7.68" fill="rgba(10,16,26,0.5)"/><polygon points="-47.43,-58.31 -32.13,-50.66 -32.13,-37.13 -47.43,-44.78" fill="rgba(10,16,26,0.5)"/><polygon points="47.43,-58.31 32.13,-50.66 32.13,-37.13 47.43,-44.78" fill="rgba(10,16,26,0.5)"/><polygon points="-19.89,-44.54 -4.59,-36.89 -4.59,-23.36 -19.89,-31.01" fill="rgba(10,16,26,0.5)"/><polygon points="19.89,-44.54 4.59,-36.89 4.59,-23.36 19.89,-31.01" fill="rgba(10,16,26,0.5)"/><polygon points="30.6,-93.3 30.6,-62.7 -30.6,-62.7 -30.6,-93.3" fill="#2b395c"/><polygon points="24.48,-93.24 24.48,-68.76 -24.48,-68.76 -24.48,-93.24" fill="#445b94"/><polygon points="-7.96,-82.74 4.28,-76.62 4.28,-66.62 -7.96,-72.74" fill="#202b45"/><polygon points="16.52,-82.74 4.28,-76.62 4.28,-66.62 16.52,-72.74" fill="#2a375a"/><polygon points="4.28,-88.86 16.52,-82.74 4.28,-76.62 -7.96,-82.74" fill="#344570"/></svg>
