<svg xmlns="http://www.w3.org/2000/svg" width="66" height="55" viewBox="-33 -30 66 55"><ellipse cx="0" cy="0" rx="16.8" ry="23.7" fill="rgba(0,0,0,0.30)"/><ellipse cx="5.94" cy="-10.45" rx="4" ry="2.3" fill="#15181d"/><ellipse cx="-5.94" cy="8.45" rx="4" ry="2.3" fill="#15181d"/><polygon points="-31.5,-7.05 -9.9,3.75 -9.9,12.75 -31.5,1.95" fill="#9e4242"/><polygon points="31.5,-16.95 -9.9,3.75 -9.9,12.75 31.5,-7.95" fill="#cc5656"/><polygon points="9.9,-27.75 31.5,-16.95 -9.9,3.75 -31.5,-7.05" fill="#FF6B6B"/><polygon points="-22.23,-15.58 -8.84,-8.89 -8.84,-0.89 -22.23,-7.58" fill="#9e4242"/><polygon points="16.83,-21.72 -8.84,-8.89 -8.84,-0.89 16.83,-13.72" fill="#cc5656"/><polygon points="3.44,-28.41 16.83,-21.72 -8.84,-8.89 -22.23,-15.58" fill="#ff6b6b"/><polygon points="4.73,-26.77 15.53,-21.37 15.53,-15.37 4.73,-20.77" fill="#bfe8f5" opacity="0.85"/><ellipse cx="20.7" cy="-17.35" rx="3.2" ry="1.8" fill="#fff3c4"/></svg>
