<svg xmlns="http://www.w3.org/2000/svg" width="66" height="55" viewBox="-33 -39 66 55"><ellipse cx="0" cy="0" rx="26.7" ry="14.25" fill="rgba(0,0,0,0.30)"/><ellipse cx="-5.67" cy="-10.58" rx="4" ry="2.3" fill="#15181d"/><ellipse cx="5.67" cy="8.58" rx="4" ry="2.3" fill="#15181d"/><polygon points="-31.95,-16.73 9.45,3.97 9.45,12.97 -31.95,-7.73" fill="__BODY__"/><polygon points="-31.95,-16.73 9.45,3.97 9.45,12.97 -31.95,-7.73" fill="rgba(0,0,0,0.38)"/><polygon points="31.95,-7.27 9.45,3.97 9.45,12.97 31.95,1.73" fill="__BODY__"/><polygon points="31.95,-7.27 9.45,3.97 9.45,12.97 31.95,1.73" fill="rgba(0,0,0,0.20)"/><polygon points="-9.45,-27.98 31.95,-7.27 9.45,3.97 -31.95,-16.73" fill="__BODY__"/><polygon points="-26.84,-27.97 7.94,-10.58 7.94,1.42 -26.84,-15.97" fill="__BODY__"/><polygon points="-26.84,-27.97 7.94,-10.58 7.94,1.42 -26.84,-15.97" fill="rgba(0,0,0,0.38)"/><polygon points="26.84,-20.03 7.94,-10.58 7.94,1.42 26.84,-8.03" fill="__BODY__"/><polygon points="26.84,-20.03 7.94,-10.58 7.94,1.42 26.84,-8.03" fill="rgba(0,0,0,0.20)"/><polygon points="-7.94,-37.42 26.84,-20.03 7.94,-10.58 -26.84,-27.97" fill="__BODY__"/><polygon points="24.95,-18.09 9.83,-10.53 9.83,-0.53 24.95,-8.09" fill="#bfe8f5" opacity="0.85"/><ellipse cx="20.7" cy="3.35" rx="5.2" ry="3" fill="#fff3c4"/></svg>
