<svg xmlns="http://www.w3.org/2000/svg" width="56" height="46" viewBox="-28 -31 56 46"><ellipse cx="0" cy="0" rx="22.2" ry="13.8" fill="rgba(0,0,0,0.30)"/><ellipse cx="-3.24" cy="-9.1" rx="4" ry="2.3" fill="#15181d"/><ellipse cx="3.24" cy="7.1" rx="4" ry="2.3" fill="#15181d"/><polygon points="-27,-13.7 5.4,2.5 5.4,10.5 -27,-5.7" fill="__BODY__"/><polygon points="-27,-13.7 5.4,2.5 5.4,10.5 -27,-5.7" fill="rgba(0,0,0,0.38)"/><polygon points="27,-8.3 5.4,2.5 5.4,10.5 27,-0.3" fill="__BODY__"/><polygon points="27,-8.3 5.4,2.5 5.4,10.5 27,-0.3" fill="rgba(0,0,0,0.20)"/><polygon points="-5.4,-24.5 27,-8.3 5.4,2.5 -27,-13.7" fill="__BODY__"/><polygon points="-19.62,-21.6 5,-9.29 5,-0.29 -19.62,-12.6" fill="__BODY__"/><polygon points="-19.62,-21.6 5,-9.29 5,-0.29 -19.62,-12.6" fill="rgba(0,0,0,0.38)"/><polygon points="21.42,-17.5 5,-9.29 5,-0.29 21.42,-8.5" fill="__BODY__"/><polygon points="21.42,-17.5 5,-9.29 5,-0.29 21.42,-8.5" fill="rgba(0,0,0,0.20)"/><polygon points="-3.2,-29.81 21.42,-17.5 5,-9.29 -19.62,-21.6" fill="__BODY__"/><polygon points="19.78,-15.68 6.65,-9.11 6.65,-2.11 19.78,-8.68" fill="#bfe8f5" opacity="0.85"/><ellipse cx="16.2" cy="1.1" rx="5.2" ry="3" fill="#d23a3a"/></svg>
