<svg xmlns="http://www.w3.org/2000/svg" width="68" height="54" viewBox="-34 -28 68 54"><ellipse cx="0" cy="0" rx="16.8" ry="24.6" fill="rgba(0,0,0,0.30)"/><ellipse cx="6.48" cy="-10.72" rx="4" ry="2.3" fill="#15181d"/><ellipse cx="-6.48" cy="8.72" rx="4" ry="2.3" fill="#15181d"/><polygon points="-32.4,-4.6 -10.8,6.2 -10.8,13.2 -32.4,2.4" fill="__BODY__"/><polygon points="-32.4,-4.6 -10.8,6.2 -10.8,13.2 -32.4,2.4" fill="rgba(0,0,0,0.38)"/><polygon points="32.4,-15.4 -10.8,6.2 -10.8,13.2 32.4,-8.4" fill="__BODY__"/><polygon points="32.4,-15.4 -10.8,6.2 -10.8,13.2 32.4,-8.4" fill="rgba(0,0,0,0.20)"/><polygon points="10.8,-26.2 32.4,-15.4 -10.8,6.2 -32.4,-4.6" fill="__BODY__"/><polygon points="-20.7,-12.05 -9.9,-6.65 -9.9,0.35 -20.7,-5.05" fill="__BODY__"/><polygon points="-20.7,-12.05 -9.9,-6.65 -9.9,0.35 -20.7,-5.05" fill="rgba(0,0,0,0.38)"/><polygon points="11.7,-17.45 -9.9,-6.65 -9.9,0.35 11.7,-10.45" fill="__BODY__"/><polygon points="11.7,-17.45 -9.9,-6.65 -9.9,0.35 11.7,-10.45" fill="rgba(0,0,0,0.20)"/><polygon points="0.9,-22.85 11.7,-17.45 -9.9,-6.65 -20.7,-12.05" fill="__BODY__"/><polygon points="-19.62,-10.51 -10.98,-6.19 -10.98,-1.19 -19.62,-5.51" fill="#bfe8f5" opacity="0.85"/><ellipse cx="-21.6" cy="3.8" rx="5.2" ry="3" fill="#d23a3a"/></svg>
