<svg xmlns="http://www.w3.org/2000/svg" width="66" height="48" viewBox="-33 -33 66 48"><ellipse cx="0" cy="0" rx="26.7" ry="13.8" fill="rgba(0,0,0,0.30)"/><ellipse cx="-5.94" cy="-10.45" rx="4" ry="2.3" fill="#15181d"/><ellipse cx="5.94" cy="8.45" rx="4" ry="2.3" fill="#15181d"/><polygon points="-31.5,-16.95 9.9,3.75 9.9,12.75 -31.5,-7.95" fill="#985778"/><polygon points="31.5,-7.05 9.9,3.75 9.9,12.75 31.5,1.95" fill="#c4709a"/><polygon points="-9.9,-27.75 31.5,-7.05 9.9,3.75 -31.5,-16.95" fill="#F58CC1"/><polygon points="-22.23,-24.42 3.44,-11.59 3.44,-3.59 -22.23,-16.42" fill="#985778"/><polygon points="16.83,-18.28 3.44,-11.59 3.44,-3.59 16.83,-10.28" fill="#c4709a"/><polygon points="-8.84,-31.11 16.83,-18.28 3.44,-11.59 -22.23,-24.42" fill="#f58cc1"/><polygon points="15.53,-16.63 4.73,-11.23 4.73,-5.23 15.53,-10.63" fill="#bfe8f5" opacity="0.85"/><ellipse cx="20.7" cy="3.35" rx="3.2" ry="1.8" fill="#fff3c4"/></svg>
