<svg xmlns="http://www.w3.org/2000/svg" width="68" height="44" viewBox="-34 -29 68 44"><ellipse cx="0" cy="0" rx="27.6" ry="13.8" fill="rgba(0,0,0,0.30)"/><ellipse cx="-6.48" cy="-10.72" rx="4" ry="2.3" fill="#15181d"/><ellipse cx="6.48" cy="8.72" rx="4" ry="2.3" fill="#15181d"/><polygon points="-32.4,-15.4 10.8,6.2 10.8,13.2 -32.4,-8.4" fill="__BODY__"/><polygon points="-32.4,-15.4 10.8,6.2 10.8,13.2 -32.4,-8.4" fill="rgba(0,0,0,0.38)"/><polygon points="32.4,-4.6 10.8,6.2 10.8,13.2 32.4,2.4" fill="__BODY__"/><polygon points="32.4,-4.6 10.8,6.2 10.8,13.2 32.4,2.4" fill="rgba(0,0,0,0.20)"/><polygon points="-10.8,-26.2 32.4,-4.6 10.8,6.2 -32.4,-15.4" fill="__BODY__"/><polygon points="-20.7,-21.95 0.9,-11.15 0.9,-4.15 -20.7,-14.95" fill="__BODY__"/><polygon points="-20.7,-21.95 0.9,-11.15 0.9,-4.15 -20.7,-14.95" fill="rgba(0,0,0,0.38)"/><polygon points="11.7,-16.55 0.9,-11.15 0.9,-4.15 11.7,-9.55" fill="__BODY__"/><polygon points="11.7,-16.55 0.9,-11.15 0.9,-4.15 11.7,-9.55" fill="rgba(0,0,0,0.20)"/><polygon points="-9.9,-27.35 11.7,-16.55 0.9,-11.15 -20.7,-21.95" fill="__BODY__"/><polygon points="10.62,-15.01 1.98,-10.69 1.98,-5.69 10.62,-10.01" fill="#bfe8f5" opacity="0.85"/><ellipse cx="21.6" cy="3.8" rx="5.2" ry="3" fill="#fff3c4"/></svg>
