<svg xmlns="http://www.w3.org/2000/svg" width="56" height="47" viewBox="-28 -32 56 47"><ellipse cx="0" cy="0" rx="22.2" ry="13.8" fill="rgba(0,0,0,0.30)"/><ellipse cx="-3.24" cy="-9.1" rx="4" ry="2.3" fill="#15181d"/><ellipse cx="3.24" cy="7.1" rx="4" ry="2.3" fill="#15181d"/><polygon points="-27,-13.7 5.4,2.5 5.4,10.5 -27,-5.7" fill="__BODY__"/><polygon points="-27,-13.7 5.4,2.5 5.4,10.5 -27,-5.7" fill="rgba(0,0,0,0.38)"/><polygon points="27,-8.3 5.4,2.5 5.4,10.5 27,-0.3" fill="__BODY__"/><polygon points="27,-8.3 5.4,2.5 5.4,10.5 27,-0.3" fill="rgba(0,0,0,0.20)"/><polygon points="-5.4,-24.5 27,-8.3 5.4,2.5 -27,-13.7" fill="__BODY__"/><polygon points="-21.42,-22.5 3.2,-10.19 3.2,-1.19 -21.42,-13.5" fill="__BODY__"/><polygon points="-21.42,-22.5 3.2,-10.19 3.2,-1.19 -21.42,-13.5" fill="rgba(0,0,0,0.38)"/><polygon points="19.62,-18.4 3.2,-10.19 3.2,-1.19 19.62,-9.4" fill="__BODY__"/><polygon points="19.62,-18.4 3.2,-10.19 3.2,-1.19 19.62,-9.4" fill="rgba(0,0,0,0.20)"/><polygon points="-5,-30.71 19.62,-18.4 3.2,-10.19 -21.42,-22.5" fill="__BODY__"/><polygon points="17.98,-16.58 4.85,-10.01 4.85,-3.01 17.98,-9.58" fill="#bfe8f5" opacity="0.85"/><ellipse cx="16.2" cy="1.1" rx="5.2" ry="3" fill="#fff3c4"/></svg>
