<svg xmlns="http://www.w3.org/2000/svg" width="74" height="53" viewBox="-37 -37 74 53"><ellipse cx="0" cy="0" rx="30.3" ry="14.25" fill="rgba(0,0,0,0.30)"/><ellipse cx="-7.83" cy="-11.66" rx="4" ry="2.3" fill="#15181d"/><ellipse cx="7.83" cy="9.66" rx="4" ry="2.3" fill="#15181d"/><polygon points="-35.55,-14.53 13.05,9.78 13.05,14.78 -35.55,-9.53" fill="__BODY__"/><polygon points="-35.55,-14.53 13.05,9.78 13.05,14.78 -35.55,-9.53" fill="rgba(0,0,0,0.38)"/><polygon points="35.55,-1.47 13.05,9.78 13.05,14.78 35.55,3.53" fill="__BODY__"/><polygon points="35.55,-1.47 13.05,9.78 13.05,14.78 35.55,3.53" fill="rgba(0,0,0,0.20)"/><polygon points="-13.05,-25.78 35.55,-1.47 13.05,9.78 -35.55,-14.53" fill="__BODY__"/><polygon points="-28.53,-28.52 0.63,-13.94 0.63,-0.94 -28.53,-15.52" fill="__BODY__"/><polygon points="-28.53,-28.52 0.63,-13.94 0.63,-0.94 -28.53,-15.52" fill="rgba(0,0,0,0.38)"/><polygon points="14.13,-20.68 0.63,-13.94 0.63,-0.94 14.13,-7.69" fill="__BODY__"/><polygon points="14.13,-20.68 0.63,-13.94 0.63,-0.94 14.13,-7.69" fill="rgba(0,0,0,0.20)"/><polygon points="-15.03,-35.27 14.13,-20.68 0.63,-13.94 -28.53,-28.52" fill="__BODY__"/><polygon points="4.64,-19.31 19.22,-12.02 19.22,4.98 4.64,-2.31" fill="__BODY__"/><polygon points="4.64,-19.31 19.22,-12.02 19.22,4.98 4.64,-2.31" fill="rgba(0,0,0,0.38)"/><polygon points="25.97,-15.39 19.22,-12.02 19.22,4.98 25.97,1.61" fill="__BODY__"/><polygon points="25.97,-15.39 19.22,-12.02 19.22,4.98 25.97,1.61" fill="rgba(0,0,0,0.20)"/><polygon points="11.38,-22.68 25.97,-15.39 19.22,-12.02 4.64,-19.31" fill="__BODY__"/><polygon points="25.29,-14.05 19.89,-11.35 19.89,3.65 25.29,0.95" fill="#bfe8f5" opacity="0.85"/><ellipse cx="24.3" cy="5.15" rx="5.2" ry="3" fill="#fff3c4"/></svg>
