<svg xmlns="http://www.w3.org/2000/svg" width="66" height="58" viewBox="-33 -33 66 58"><ellipse cx="0" cy="0" rx="16.8" ry="23.7" fill="rgba(0,0,0,0.30)"/><ellipse cx="5.94" cy="-10.45" rx="4" ry="2.3" fill="#15181d"/><ellipse cx="-5.94" cy="8.45" rx="4" ry="2.3" fill="#15181d"/><polygon points="-31.5,-7.05 -9.9,3.75 -9.9,12.75 -31.5,1.95" fill="#967028"/><polygon points="31.5,-16.95 -9.9,3.75 -9.9,12.75 31.5,-7.95" fill="#c29034"/><polygon points="9.9,-27.75 31.5,-16.95 -9.9,3.75 -31.5,-7.05" fill="#F2B441"/><polygon points="-16.83,-18.28 -3.44,-11.59 -3.44,-3.59 -16.83,-10.28" fill="#967028"/><polygon points="22.23,-24.42 -3.44,-11.59 -3.44,-3.59 22.23,-16.42" fill="#c29034"/><polygon points="8.84,-31.11 22.23,-24.42 -3.44,-11.59 -16.83,-18.28" fill="#f2b441"/><polygon points="-15.53,-16.63 -4.73,-11.23 -4.73,-5.23 -15.53,-10.63" fill="#bfe8f5" opacity="0.85"/><ellipse cx="-20.7" cy="3.35" rx="3.2" ry="1.8" fill="#fff3c4"/></svg>
