<svg xmlns="http://www.w3.org/2000/svg" width="74" height="55" viewBox="-37 -39 74 55"><ellipse cx="0" cy="0" rx="30.3" ry="14.25" fill="rgba(0,0,0,0.30)"/><ellipse cx="-7.83" cy="-11.66" rx="4" ry="2.3" fill="#15181d"/><ellipse cx="7.83" cy="9.66" rx="4" ry="2.3" fill="#15181d"/><polygon points="-35.55,-14.53 13.05,9.78 13.05,14.78 -35.55,-9.53" fill="__BODY__"/><polygon points="-35.55,-14.53 13.05,9.78 13.05,14.78 -35.55,-9.53" fill="rgba(0,0,0,0.38)"/><polygon points="35.55,-1.47 13.05,9.78 13.05,14.78 35.55,3.53" fill="__BODY__"/><polygon points="35.55,-1.47 13.05,9.78 13.05,14.78 35.55,3.53" fill="rgba(0,0,0,0.20)"/><polygon points="-13.05,-25.78 35.55,-1.47 13.05,9.78 -35.55,-14.53" fill="__BODY__"/><polygon points="-14.13,-21.32 15.03,-6.73 15.03,6.27 -14.13,-8.31" fill="__BODY__"/><polygon points="-14.13,-21.32 15.03,-6.73 15.03,6.27 -14.13,-8.31" fill="rgba(0,0,0,0.38)"/><polygon points="28.53,-13.48 15.03,-6.73 15.03,6.27 28.53,-0.49" fill="__BODY__"/><polygon points="28.53,-13.48 15.03,-6.73 15.03,6.27 28.53,-0.49" fill="rgba(0,0,0,0.20)"/><polygon points="-0.63,-28.06 28.53,-13.48 15.03,-6.73 -14.13,-21.32" fill="__BODY__"/><polygon points="-25.97,-34.61 -11.38,-27.32 -11.38,-10.32 -25.97,-17.61" fill="__BODY__"/><polygon points="-25.97,-34.61 -11.38,-27.32 -11.38,-10.32 -25.97,-17.61" fill="rgba(0,0,0,0.38)"/><polygon points="-4.64,-30.69 -11.38,-27.32 -11.38,-10.32 -4.64,-13.69" fill="__BODY__"/><polygon points="-4.64,-30.69 -11.38,-27.32 -11.38,-10.32 -4.64,-13.69" fill="rgba(0,0,0,0.20)"/><polygon points="-19.22,-37.98 -4.64,-30.69 -11.38,-27.32 -25.97,-34.61" fill="__BODY__"/><polygon points="-5.31,-29.36 -10.71,-26.66 -10.71,-11.66 -5.31,-14.36" fill="#bfe8f5" opacity="0.85"/><ellipse cx="24.3" cy="5.15" rx="5.2" ry="3" fill="#d23a3a"/></svg>
