<svg xmlns="http://www.w3.org/2000/svg" width="66" height="45" viewBox="-33 -30 66 45"><ellipse cx="0" cy="0" rx="26.7" ry="13.8" fill="rgba(0,0,0,0.30)"/><ellipse cx="-5.94" cy="-10.45" rx="4" ry="2.3" fill="#15181d"/><ellipse cx="5.94" cy="8.45" rx="4" ry="2.3" fill="#15181d"/><polygon points="-31.5,-16.95 9.9,3.75 9.9,12.75 -31.5,-7.95" fill="__BODY__"/><polygon points="-31.5,-16.95 9.9,3.75 9.9,12.75 -31.5,-7.95" fill="rgba(0,0,0,0.38)"/><polygon points="31.5,-7.05 9.9,3.75 9.9,12.75 31.5,1.95" fill="__BODY__"/><polygon points="31.5,-7.05 9.9,3.75 9.9,12.75 31.5,1.95" fill="rgba(0,0,0,0.20)"/><polygon points="-9.9,-27.75 31.5,-7.05 9.9,3.75 -31.5,-16.95" fill="__BODY__"/><polygon points="-16.83,-21.72 8.84,-8.89 8.84,-0.89 -16.83,-13.72" fill="__BODY__"/><polygon points="-16.83,-21.72 8.84,-8.89 8.84,-0.89 -16.83,-13.72" fill="rgba(0,0,0,0.38)"/><polygon points="22.23,-15.58 8.84,-8.89 8.84,-0.89 22.23,-7.58" fill="__BODY__"/><polygon points="22.23,-15.58 8.84,-8.89 8.84,-0.89 22.23,-7.58" fill="rgba(0,0,0,0.20)"/><polygon points="-3.44,-28.41 22.23,-15.58 8.84,-8.89 -16.83,-21.72" fill="__BODY__"/><polygon points="20.89,-13.91 10.18,-8.55 10.18,-2.55 20.89,-7.91" fill="#bfe8f5" opacity="0.85"/><ellipse cx="20.7" cy="3.35" rx="5.2" ry="3" fill="#d23a3a"/></svg>
