<svg xmlns="http://www.w3.org/2000/svg" width="74" height="60" viewBox="-37 -41 74 60"><ellipse cx="0" cy="0" rx="21.599999999999998" ry="11.16" fill="rgba(0,0,0,0.28)"/><polygon points="-36,-22 0,-4 0,18 -36,0" fill="#784525"/><polygon points="36,-22 0,-4 0,18 36,0" fill="#9b5a2f"/><polygon points="0,-40 36,-22 0,-4 -36,-22" fill="#C2703B"/><polygon points="0,-38 0,-40 36,-22" fill="#7E2F22"/><polygon points="0,-38 36,-22 0,-4" fill="#9B3A2A"/><polygon points="0,-38 0,-4 -36,-22" fill="#7E2F22"/><polygon points="0,-38 -36,-22 0,-40" fill="#5F231A"/><polygon points="-23.4,-6.9 -12.6,-1.5 -12.6,11.7 -23.4,6.3" fill="#3a1a12"/><polygon points="-10.8,-5 -5.4,-2.3 -5.4,5.4 -10.8,2.7" fill="rgba(255,221,160,0.9)"/><polygon points="10.8,-33.1 16.2,-30.4 16.2,-22.4 10.8,-25.1" fill="#562e1a"/><polygon points="21.6,-33.1 16.2,-30.4 16.2,-22.4 21.6,-25.1" fill="#6e3b22"/><polygon points="16.2,-35.8 21.6,-33.1 16.2,-30.4 10.8,-33.1" fill="#8a4a2a"/></svg>
