<svg xmlns="http://www.w3.org/2000/svg" width="18" height="31" viewBox="-9 -26 18 31"><polygon points="-4.32,-4.38 0,-2.22 0,3.78 -4.32,1.62" fill="#1b2633"/><polygon points="4.32,-4.38 0,-2.22 0,3.78 4.32,1.62" fill="#233242"/><polygon points="0,-6.54 4.32,-4.38 0,-2.22 -4.32,-4.38" fill="#2c3e52"/><polygon points="-7.92,-15 0,-11.04 0,-1.04 -7.92,-5" fill="#136257"/><polygon points="7.92,-15 0,-11.04 0,-1.04 7.92,-5" fill="#197e70"/><polygon points="0,-18.96 7.92,-15 0,-11.04 -7.92,-15" fill="#1f9e8c"/><polygon points="-5.76,-22 0,-19.12 0,-12.12 -5.76,-15" fill="#8f7057"/><polygon points="5.76,-22 0,-19.12 0,-12.12 5.76,-15" fill="#b89170"/><polygon points="0,-24.88 5.76,-22 0,-19.12 -5.76,-22" fill="#e6b58c"/><polygon points="-3.42,-11.48 1.08,-9.23 1.08,-3.23 -3.42,-5.48" fill="#7d6427"/><polygon points="3.42,-10.4 1.08,-9.23 1.08,-3.23 3.42,-4.4" fill="#a28232"/><polygon points="-1.08,-12.65 3.42,-10.4 1.08,-9.23 -3.42,-11.48" fill="#caa23f"/><polygon points="-2.79,-12.24 0.99,-10.35 0.99,-9.54 -2.79,-11.44" fill="#9d9d98"/><polygon points="2.79,-11.25 0.99,-10.35 0.99,-9.54 2.79,-10.45" fill="#cacac4"/><polygon points="-0.99,-13.14 2.79,-11.25 0.99,-10.35 -2.79,-12.24" fill="#fdfdf5"/></svg>
