<svg xmlns="http://www.w3.org/2000/svg" width="18" height="35" viewBox="-9 -30 18 35"><polygon points="-3.42,-10.53 0,-8.82 0,0.18 -3.42,-1.53" fill="#1b2633"/><polygon points="3.42,-10.53 0,-8.82 0,0.18 3.42,-1.53" fill="#233242"/><polygon points="0,-12.24 3.42,-10.53 0,-8.82 -3.42,-10.53" fill="#2c3e52"/><polygon points="-3.42,-7.47 0,-5.76 0,3.24 -3.42,1.53" fill="#16202a"/><polygon points="3.42,-7.47 0,-5.76 0,3.24 3.42,1.53" fill="#1d2936"/><polygon points="0,-9.18 3.42,-7.47 0,-5.76 -3.42,-7.47" fill="#243343"/><polygon points="-7.56,-19 0,-15.22 0,-5.22 -7.56,-9" fill="#136257"/><polygon points="7.56,-19 0,-15.22 0,-5.22 7.56,-9" fill="#197e70"/><polygon points="0,-22.78 7.56,-19 0,-15.22 -7.56,-19" fill="#1f9e8c"/><polygon points="-5.76,-26 0,-23.12 0,-16.12 -5.76,-19" fill="#8f7057"/><polygon points="5.76,-26 0,-23.12 0,-16.12 5.76,-19" fill="#b89170"/><polygon points="0,-28.88 5.76,-26 0,-23.12 -5.76,-26" fill="#e6b58c"/><polygon points="-3.42,-14.48 1.08,-12.23 1.08,-6.23 -3.42,-8.48" fill="#7d6427"/><polygon points="3.42,-13.4 1.08,-12.23 1.08,-6.23 3.42,-7.4" fill="#a28232"/><polygon points="-1.08,-15.65 3.42,-13.4 1.08,-12.23 -3.42,-14.48" fill="#caa23f"/><polygon points="-2.79,-15.24 0.99,-13.35 0.99,-12.54 -2.79,-14.44" fill="#9d9d98"/><polygon points="2.79,-14.25 0.99,-13.35 0.99,-12.54 2.79,-13.45" fill="#cacac4"/><polygon points="-0.99,-16.14 2.79,-14.25 0.99,-13.35 -2.79,-15.24" fill="#fdfdf5"/></svg>
