<svg xmlns="http://www.w3.org/2000/svg" width="512" height="384" viewBox="0 0 512 384" role="img" aria-label="Burocrazia">
  <defs>
    <linearGradient id="sky" x1="0" y1="0" x2="0" y2="1"><stop offset="0" stop-color="#0B0F17"/><stop offset="1" stop-color="#0F1826"/></linearGradient>
    <radialGradient id="halo" cx="0.5" cy="0.5" r="0.5"><stop offset="0" stop-color="#38E1C6" stop-opacity="0.45"/><stop offset="1" stop-color="#38E1C6" stop-opacity="0"/></radialGradient>
    <radialGradient id="vig" cx="0.5" cy="0.42" r="0.75"><stop offset="0.55" stop-color="#000" stop-opacity="0"/><stop offset="1" stop-color="#000" stop-opacity="0.45"/></radialGradient>
  </defs>
  <rect width="512" height="384" fill="url(#sky)"/>
  <g transform="translate(267.3 229.7) scale(0.810)"><g stroke="#2A3445" stroke-width="15" stroke-linecap="round"><line x1="-333.0" y1="-67.5" x2="135.0" y2="166.5"/><line x1="211.5" y1="-92.3" x2="-193.5" y2="110.3"/><line x1="-49.5" y1="-110.3" x2="-315.0" y2="22.5"/></g><g stroke="#3a4658" stroke-width="2" stroke-linecap="round" stroke-dasharray="7 9" opacity="0.55"><line x1="-333.0" y1="-67.5" x2="135.0" y2="166.5"/><line x1="211.5" y1="-92.3" x2="-193.5" y2="110.3"/></g><ellipse cx="-45.0" cy="36.0" rx="62" ry="31" fill="url(#halo)"/><g transform="translate(-49.5 -110.3)"><ellipse cx="0" cy="0" rx="35.19" ry="18.36" fill="rgba(0,0,0,0.28)"/><polygon points="-61.2,-78 0,-47.4 0,30.6 -61.2,0" fill="#263252"/><polygon points="61.2,-78 0,-47.4 0,30.6 61.2,0" fill="#31416a"/><polygon points="0,-108.6 61.2,-78 0,-47.4 -61.2,-78" fill="#3d5184"/><polygon points="-47.43,-11.65 -32.13,-4 -32.13,9.53 -47.43,1.89" fill="rgba(255,221,160,0.92)"/><polygon points="47.43,-11.65 32.13,-4 32.13,9.53 47.43,1.89" fill="rgba(255,221,160,0.92)"/><polygon points="-19.89,2.12 -4.59,9.77 -4.59,23.31 -19.89,15.66" fill="rgba(10,16,26,0.5)"/><polygon points="19.89,2.12 4.59,9.77 4.59,23.31 19.89,15.66" fill="rgba(255,221,160,0.92)"/><polygon points="-47.43,-34.98 -32.13,-27.33 -32.13,-13.8 -47.43,-21.45" fill="rgba(10,16,26,0.5)"/><polygon points="47.43,-34.98 32.13,-27.33 32.13,-13.8 47.43,-21.45" fill="rgba(10,16,26,0.5)"/><polygon points="-19.89,-21.21 -4.59,-13.56 -4.59,-0.03 -19.89,-7.68" fill="rgba(255,221,160,0.92)"/><polygon points="19.89,-21.21 4.59,-13.56 4.59,-0.03 19.89,-7.68" fill="rgba(10,16,26,0.5)"/><polygon points="-47.43,-58.31 -32.13,-50.66 -32.13,-37.13 -47.43,-44.78" fill="rgba(10,16,26,0.5)"/><polygon points="47.43,-58.31 32.13,-50.66 32.13,-37.13 47.43,-44.78" fill="rgba(10,16,26,0.5)"/><polygon points="-19.89,-44.54 -4.59,-36.89 -4.59,-23.36 -19.89,-31.01" fill="rgba(10,16,26,0.5)"/><polygon points="19.89,-44.54 4.59,-36.89 4.59,-23.36 19.89,-31.01" fill="rgba(10,16,26,0.5)"/><polygon points="30.6,-93.3 30.6,-62.7 -30.6,-62.7 -30.6,-93.3" fill="#2b395c"/><polygon points="24.48,-93.24 24.48,-68.76 -24.48,-68.76 -24.48,-93.24" fill="#445b94"/><polygon points="-7.96,-82.74 4.28,-76.62 4.28,-66.62 -7.96,-72.74" fill="#202b45"/><polygon points="16.52,-82.74 4.28,-76.62 4.28,-66.62 16.52,-72.74" fill="#2a375a"/><polygon points="4.28,-88.86 16.52,-82.74 4.28,-76.62 -7.96,-82.74" fill="#344570"/></g><g transform="translate(112.5 -78.8)"><ellipse cx="0" cy="0" rx="33.12" ry="17.28" fill="rgba(0,0,0,0.28)"/><polygon points="-57.6,-52 0,-23.2 0,28.8 -57.6,0" fill="#1c2537"/><polygon points="57.6,-52 0,-23.2 0,28.8 57.6,0" fill="#243046"/><polygon points="0,-80.8 57.6,-52 0,-23.2 -57.6,-52" fill="#2d3c58"/><polygon points="-44.64,-11.28 -30.24,-4.08 -30.24,8.68 -44.64,1.48" fill="rgba(10,16,26,0.5)"/><polygon points="44.64,-11.28 30.24,-4.08 30.24,8.68 44.64,1.48" fill="rgba(10,16,26,0.5)"/><polygon points="-18.72,1.68 -4.32,8.88 -4.32,21.64 -18.72,14.44" fill="rgba(255,221,160,0.92)"/><polygon points="18.72,1.68 4.32,8.88 4.32,21.64 18.72,14.44" fill="rgba(255,221,160,0.92)"/><polygon points="-44.64,-33.28 -30.24,-26.08 -30.24,-13.32 -44.64,-20.52" fill="rgba(255,221,160,0.92)"/><polygon points="44.64,-33.28 30.24,-26.08 30.24,-13.32 44.64,-20.52" fill="rgba(10,16,26,0.5)"/><polygon points="-18.72,-20.32 -4.32,-13.12 -4.32,-0.36 -18.72,-7.56" fill="rgba(10,16,26,0.5)"/><polygon points="18.72,-20.32 4.32,-13.12 4.32,-0.36 18.72,-7.56" fill="rgba(10,16,26,0.5)"/><polygon points="28.8,-66.4 28.8,-37.6 -28.8,-37.6 -28.8,-66.4" fill="#1f2a3e"/><polygon points="23.04,-66.52 23.04,-43.48 -23.04,-43.48 -23.04,-66.52" fill="#324363"/><polygon points="-7.49,-57.22 4.03,-51.46 4.03,-41.46 -7.49,-47.22" fill="#18202f"/><polygon points="15.55,-57.22 4.03,-51.46 4.03,-41.46 15.55,-47.22" fill="#1e293c"/><polygon points="4.03,-62.98 15.55,-57.22 4.03,-51.46 -7.49,-57.22" fill="#26334b"/></g><g transform="translate(-225.0 -76.5)"><ellipse cx="0" cy="0" rx="37.26" ry="19.439999999999998" fill="rgba(0,0,0,0.28)"/><polygon points="-64.8,-34 0,-1.6 0,32.4 -64.8,0" fill="#4c3e32"/><polygon points="64.8,-34 0,-1.6 0,32.4 64.8,0" fill="#625040"/><polygon points="0,-66.4 64.8,-34 0,-1.6 -64.8,-34" fill="#7a6450"/><polygon points="-50.22,-12.79 -34.02,-4.69 -34.02,10.39 -50.22,2.29" fill="rgba(10,16,26,0.5)"/><polygon points="50.22,-12.79 34.02,-4.69 34.02,10.39 50.22,2.29" fill="rgba(255,221,160,0.92)"/><polygon points="-21.06,1.79 -4.86,9.89 -4.86,24.97 -21.06,16.87" fill="rgba(255,221,160,0.92)"/><polygon points="21.06,1.79 4.86,9.89 4.86,24.97 21.06,16.87" fill="rgba(10,16,26,0.5)"/><polygon points="32.4,-50.2 32.4,-17.8 -32.4,-17.8 -32.4,-50.2" fill="#554638"/><polygon points="25.92,-49.96 25.92,-24.04 -25.92,-24.04 -25.92,-49.96" fill="#89705a"/><polygon points="-8.42,-38.25 4.54,-31.77 4.54,-21.77 -8.42,-28.25" fill="#40352a"/><polygon points="17.5,-38.25 4.54,-31.77 4.54,-21.77 17.5,-28.25" fill="#534436"/><polygon points="4.54,-44.73 17.5,-38.25 4.54,-31.77 -8.42,-38.25" fill="#685544"/></g><g transform="translate(-261.0 -36.0)"><ellipse cx="0" cy="0" rx="21.599999999999998" ry="11.16" fill="rgba(0,0,0,0.28)"/><polygon points="-36,-22 0,-4 0,18 -36,0" fill="#784525"/><polygon points="36,-22 0,-4 0,18 36,0" fill="#9b5a2f"/><polygon points="0,-40 36,-22 0,-4 -36,-22" fill="#C2703B"/><polygon points="0,-38 0,-40 36,-22" fill="#7E2F22"/><polygon points="0,-38 36,-22 0,-4" fill="#9B3A2A"/><polygon points="0,-38 0,-4 -36,-22" fill="#7E2F22"/><polygon points="0,-38 -36,-22 0,-40" fill="#5F231A"/><polygon points="-23.4,-6.9 -12.6,-1.5 -12.6,11.7 -23.4,6.3" fill="#3a1a12"/><polygon points="-10.8,-5 -5.4,-2.3 -5.4,5.4 -10.8,2.7" fill="rgba(255,221,160,0.9)"/><polygon points="10.8,-33.1 16.2,-30.4 16.2,-22.4 10.8,-25.1" fill="#562e1a"/><polygon points="21.6,-33.1 16.2,-30.4 16.2,-22.4 21.6,-25.1" fill="#6e3b22"/><polygon points="16.2,-35.8 21.6,-33.1 16.2,-30.4 10.8,-33.1" fill="#8a4a2a"/></g><g transform="translate(207.0 4.5)"><ellipse cx="0" cy="0" rx="34.154999999999994" ry="17.82" fill="rgba(0,0,0,0.28)"/><polygon points="-59.4,-70 0,-40.3 0,29.7 -59.4,0" fill="#2b364e"/><polygon points="59.4,-70 0,-40.3 0,29.7 59.4,0" fill="#384664"/><polygon points="0,-99.7 59.4,-70 0,-40.3 -59.4,-70" fill="#46577d"/><polygon points="-46.03,-10.3 -31.18,-2.88 -31.18,9.11 -46.03,1.68" fill="rgba(255,221,160,0.92)"/><polygon points="46.03,-10.3 31.18,-2.88 31.18,9.11 46.03,1.68" fill="rgba(10,16,26,0.5)"/><polygon points="-19.3,3.06 -4.45,10.49 -4.45,22.47 -19.3,15.05" fill="rgba(255,221,160,0.92)"/><polygon points="19.3,3.06 4.45,10.49 4.45,22.47 19.3,15.05" fill="rgba(10,16,26,0.5)"/><polygon points="-46.03,-30.97 -31.18,-23.55 -31.18,-11.56 -46.03,-18.98" fill="rgba(255,221,160,0.92)"/><polygon points="46.03,-30.97 31.18,-23.55 31.18,-11.56 46.03,-18.98" fill="rgba(10,16,26,0.5)"/><polygon points="-19.3,-17.61 -4.45,-10.18 -4.45,1.81 -19.3,-5.62" fill="rgba(255,221,160,0.92)"/><polygon points="19.3,-17.61 4.45,-10.18 4.45,1.81 19.3,-5.62" fill="rgba(10,16,26,0.5)"/><polygon points="-46.03,-51.64 -31.18,-44.21 -31.18,-32.23 -46.03,-39.65" fill="rgba(10,16,26,0.5)"/><polygon points="46.03,-51.64 31.18,-44.21 31.18,-32.23 46.03,-39.65" fill="rgba(10,16,26,0.5)"/><polygon points="-19.3,-38.27 -4.45,-30.85 -4.45,-18.86 -19.3,-26.29" fill="rgba(10,16,26,0.5)"/><polygon points="19.3,-38.27 4.45,-30.85 4.45,-18.86 19.3,-26.29" fill="rgba(10,16,26,0.5)"/><polygon points="29.7,-84.85 29.7,-55.15 -29.7,-55.15 -29.7,-84.85" fill="#313d58"/><polygon points="23.76,-84.88 23.76,-61.12 -23.76,-61.12 -23.76,-84.88" fill="#4e618c"/><polygon points="-7.72,-74.98 4.16,-69.04 4.16,-59.04 -7.72,-64.98" fill="#252e42"/><polygon points="16.04,-74.98 4.16,-69.04 4.16,-59.04 16.04,-64.98" fill="#303b55"/><polygon points="4.16,-80.92 16.04,-74.98 4.16,-69.04 -7.72,-74.98" fill="#3c4a6a"/></g><g transform="translate(103.5 11.3)"><ellipse cx="0" cy="0" rx="10.88" ry="5.760000000000001" fill="rgba(0,0,0,0.28)"/><polygon points="-4.32,-12.8 0,-10.64 0,2.16 -4.32,0" fill="#38281e"/><polygon points="4.32,-12.8 0,-10.64 0,2.16 4.32,0" fill="#483326"/><polygon points="0,-14.96 4.32,-12.8 0,-10.64 -4.32,-12.8" fill="#5a4030"/><ellipse cx="0.5" cy="-19.200000000000003" rx="12.8" ry="11.008000000000001" fill="#1f5a33"/><ellipse cx="-4.300000000000001" cy="-25.6" rx="8.448" ry="7.936" fill="#2c763f"/><ellipse cx="6.1000000000000005" cy="-23.200000000000003" rx="7.040000000000001" ry="6.656000000000001" fill="#34924c"/><ellipse cx="-1.1" cy="-30.400000000000002" rx="4.608" ry="4.352" fill="#46ad5e"/></g><g transform="translate(-207.0 18.0)"><ellipse cx="0" cy="0" rx="13.6" ry="7.2" fill="rgba(0,0,0,0.28)"/><polygon points="-4.32,-16 0,-13.84 0,2.16 -4.32,0" fill="#38281e"/><polygon points="4.32,-16 0,-13.84 0,2.16 4.32,0" fill="#483326"/><polygon points="0,-18.16 4.32,-16 0,-13.84 -4.32,-16" fill="#5a4030"/><ellipse cx="-0.5" cy="-24" rx="16" ry="13.76" fill="#1f5a33"/><ellipse cx="-6.5" cy="-32" rx="10.56" ry="9.92" fill="#2c763f"/><ellipse cx="6.5" cy="-29" rx="8.8" ry="8.32" fill="#34924c"/><ellipse cx="-2.5" cy="-38" rx="5.76" ry="5.44" fill="#46ad5e"/></g><polygon points="-81.0,-10.0 -45.0,8.0 -45.0,54.0 -81.0,36.0" fill="#157c6e"/><polygon points="-9.0,-10.0 -45.0,8.0 -45.0,54.0 -9.0,36.0" fill="#1f9e8c"/><polygon points="-45.0,-28.0 -9.0,-10.0 -45.0,8.0 -81.0,-10.0" fill="#38E1C6"/><polygon points="-73.8,3.7 -52.2,14.5 -52.2,41.2 -73.8,30.4" fill="rgba(207,255,247,0.92)"/><g transform="translate(-184.5 42.8)"><ellipse cx="0" cy="0" rx="16.8" ry="23.7" fill="rgba(0,0,0,0.30)"/><ellipse cx="5.94" cy="-10.45" rx="4" ry="2.3" fill="#15181d"/><ellipse cx="-5.94" cy="8.45" rx="4" ry="2.3" fill="#15181d"/><polygon points="-31.5,-7.05 -9.9,3.75 -9.9,12.75 -31.5,1.95" fill="#967028"/><polygon points="31.5,-16.95 -9.9,3.75 -9.9,12.75 31.5,-7.95" fill="#c29034"/><polygon points="9.9,-27.75 31.5,-16.95 -9.9,3.75 -31.5,-7.05" fill="#F2B441"/><polygon points="-22.23,-15.58 -8.84,-8.89 -8.84,-0.89 -22.23,-7.58" fill="#967028"/><polygon points="16.83,-21.72 -8.84,-8.89 -8.84,-0.89 16.83,-13.72" fill="#c29034"/><polygon points="3.44,-28.41 16.83,-21.72 -8.84,-8.89 -22.23,-15.58" fill="#f2b441"/><polygon points="4.73,-26.77 15.53,-21.37 15.53,-15.37 4.73,-20.77" fill="#bfe8f5" opacity="0.85"/><ellipse cx="20.7" cy="-17.35" rx="3.2" ry="1.8" fill="#fff3c4"/></g><g transform="translate(207.0 90.0)"><ellipse cx="0" cy="0" rx="35.19" ry="18.36" fill="rgba(0,0,0,0.28)"/><polygon points="-61.2,-50 0,-19.4 0,30.6 -61.2,0" fill="#223230"/><polygon points="61.2,-50 0,-19.4 0,30.6 61.2,0" fill="#2c413e"/><polygon points="0,-80.6 61.2,-50 0,-19.4 -61.2,-50" fill="#37514e"/><polygon points="-47.43,-10.29 -32.13,-2.65 -32.13,9.53 -47.43,1.89" fill="rgba(10,16,26,0.5)"/><polygon points="47.43,-10.29 32.13,-2.65 32.13,9.53 47.43,1.89" fill="rgba(10,16,26,0.5)"/><polygon points="-19.89,3.48 -4.59,11.13 -4.59,23.31 -19.89,15.66" fill="rgba(255,221,160,0.92)"/><polygon points="19.89,3.48 4.59,11.13 4.59,23.31 19.89,15.66" fill="rgba(255,221,160,0.92)"/><polygon points="-47.43,-31.29 -32.13,-23.65 -32.13,-11.47 -47.43,-19.11" fill="rgba(10,16,26,0.5)"/><polygon points="47.43,-31.29 32.13,-23.65 32.13,-11.47 47.43,-19.11" fill="rgba(10,16,26,0.5)"/><polygon points="-19.89,-17.52 -4.59,-9.87 -4.59,2.31 -19.89,-5.34" fill="rgba(255,221,160,0.92)"/><polygon points="19.89,-17.52 4.59,-9.87 4.59,2.31 19.89,-5.34" fill="rgba(10,16,26,0.5)"/><polygon points="30.6,-65.3 30.6,-34.7 -30.6,-34.7 -30.6,-65.3" fill="#273937"/><polygon points="24.48,-65.24 24.48,-40.76 -24.48,-40.76 -24.48,-65.24" fill="#3e5b57"/><polygon points="-7.96,-54.74 4.28,-48.62 4.28,-38.62 -7.96,-44.74" fill="#1d2b29"/><polygon points="16.52,-54.74 4.28,-48.62 4.28,-38.62 16.52,-44.74" fill="#263735"/><polygon points="4.28,-60.86 16.52,-54.74 4.28,-48.62 -7.96,-54.74" fill="#2f4542"/></g><g transform="translate(49.5 110.3)"><ellipse cx="0" cy="0" rx="26.7" ry="13.8" fill="rgba(0,0,0,0.30)"/><ellipse cx="-5.94" cy="-10.45" rx="4" ry="2.3" fill="#15181d"/><ellipse cx="5.94" cy="8.45" rx="4" ry="2.3" fill="#15181d"/><polygon points="-31.5,-16.95 9.9,3.75 9.9,12.75 -31.5,-7.95" fill="#387792"/><polygon points="31.5,-7.05 9.9,3.75 9.9,12.75 31.5,1.95" fill="#499abc"/><polygon points="-9.9,-27.75 31.5,-7.05 9.9,3.75 -31.5,-16.95" fill="#5BC0EB"/><polygon points="-22.23,-24.42 3.44,-11.59 3.44,-3.59 -22.23,-16.42" fill="#387792"/><polygon points="16.83,-18.28 3.44,-11.59 3.44,-3.59 16.83,-10.28" fill="#499abc"/><polygon points="-8.84,-31.11 16.83,-18.28 3.44,-11.59 -22.23,-24.42" fill="#5bc0eb"/><polygon points="15.53,-16.63 4.73,-11.23 4.73,-5.23 15.53,-10.63" fill="#bfe8f5" opacity="0.85"/><ellipse cx="20.7" cy="3.35" rx="3.2" ry="1.8" fill="#fff3c4"/></g><g transform="translate(103.5 114.8)"><ellipse cx="0" cy="0" rx="36.224999999999994" ry="18.9" fill="rgba(0,0,0,0.28)"/><polygon points="-63,-38 0,-6.5 0,31.5 -63,0" fill="#242e3f"/><polygon points="63,-38 0,-6.5 0,31.5 63,0" fill="#2e3b52"/><polygon points="0,-69.5 63,-38 0,-6.5 -63,-38" fill="#3a4a66"/><polygon points="-48.83,-15.31 -33.08,-7.44 -33.08,9.96 -48.83,2.09" fill="rgba(10,16,26,0.5)"/><polygon points="48.83,-15.31 33.08,-7.44 33.08,9.96 48.83,2.09" fill="rgba(255,221,160,0.92)"/><polygon points="-20.48,-1.14 -4.73,6.74 -4.73,24.14 -20.48,16.26" fill="rgba(10,16,26,0.5)"/><polygon points="20.48,-1.14 4.73,6.74 4.73,24.14 20.48,16.26" fill="rgba(255,221,160,0.92)"/><polygon points="31.5,-53.75 31.5,-22.25 -31.5,-22.25 -31.5,-53.75" fill="#293447"/><polygon points="25.2,-53.6 25.2,-28.4 -25.2,-28.4 -25.2,-53.6" fill="#415372"/><polygon points="-8.19,-42.5 4.41,-36.2 4.41,-26.2 -8.19,-32.5" fill="#1e2736"/><polygon points="17.01,-42.5 4.41,-36.2 4.41,-26.2 17.01,-32.5" fill="#273246"/><polygon points="4.41,-48.8 17.01,-42.5 4.41,-36.2 -8.19,-42.5" fill="#313f57"/></g><g transform="translate(13.5 141.8)"><ellipse cx="0" cy="0" rx="16.32" ry="8.64" fill="rgba(0,0,0,0.28)"/><polygon points="-4.32,-19.2 0,-17.04 0,2.16 -4.32,0" fill="#38281e"/><polygon points="4.32,-19.2 0,-17.04 0,2.16 4.32,0" fill="#483326"/><polygon points="0,-21.36 4.32,-19.2 0,-17.04 -4.32,-19.2" fill="#5a4030"/><ellipse cx="1.5" cy="-28.799999999999997" rx="19.2" ry="16.512" fill="#1f5a33"/><ellipse cx="-5.699999999999999" cy="-38.4" rx="12.672" ry="11.904" fill="#2c763f"/><ellipse cx="9.9" cy="-34.8" rx="10.56" ry="9.984" fill="#34924c"/><ellipse cx="-0.8999999999999999" cy="-45.599999999999994" rx="6.912" ry="6.5280000000000005" fill="#46ad5e"/></g><path d="M-184.5 20.8 Q-114.8 -32.0 -45.0 -10.0" fill="none" stroke="#FFD23F" stroke-width="5" stroke-linecap="round" stroke-dasharray="9 8" opacity="0.95"/><ellipse cx="-45.0" cy="36.0" rx="40" ry="20" fill="none" stroke="#38E1C6" stroke-width="2.4" opacity="0.55"/></g>
  <rect width="512" height="384" fill="url(#vig)"/>
  <g transform="translate(454 54)">
    <circle r="28" fill="rgba(13,19,29,0.92)" stroke="#2a3445" stroke-width="3"/>
    <circle r="28" fill="none" stroke="#FFD23F" stroke-width="2.2" stroke-dasharray="3 6" opacity="0.7"/>
    <line x1="0" y1="0" x2="8" y2="-11" stroke="#38E1C6" stroke-width="3.2" stroke-linecap="round"/>
    <line x1="0" y1="0" x2="-12" y2="8" stroke="#38E1C6" stroke-width="2.4" stroke-linecap="round"/>
    <circle r="2.4" fill="#38E1C6"/>
  </g>
</svg>
