<svg xmlns="http://www.w3.org/2000/svg" width="1200" height="630" viewBox="0 0 1200 630" font-family="'Segoe UI',Arial,Helvetica,sans-serif">
  <defs>
    <linearGradient id="bg" x1="0" y1="0" x2="1" y2="1">
      <stop offset="0" stop-color="#241b4e"/>
      <stop offset="0.55" stop-color="#3b1d6e"/>
      <stop offset="1" stop-color="#6d28d9"/>
    </linearGradient>
    <linearGradient id="rocket" x1="0" y1="0" x2="0" y2="1">
      <stop offset="0" stop-color="#f8fafc"/>
      <stop offset="1" stop-color="#cbd5e1"/>
    </linearGradient>
    <linearGradient id="flame" x1="0" y1="0" x2="0" y2="1">
      <stop offset="0" stop-color="#fde047"/>
      <stop offset="1" stop-color="#f97316"/>
    </linearGradient>
    <radialGradient id="glow" cx="0.5" cy="0.42" r="0.65">
      <stop offset="0" stop-color="#a855f7" stop-opacity="0.55"/>
      <stop offset="1" stop-color="#a855f7" stop-opacity="0"/>
    </radialGradient>
  </defs>

  <rect width="1200" height="630" fill="url(#bg)"/>
  <rect width="1200" height="630" fill="url(#glow)"/>

  <!-- starfield -->
  <g fill="#ffffff" opacity="0.85">
    <circle cx="120" cy="90" r="3"/><circle cx="300" cy="60" r="2"/><circle cx="520" cy="110" r="2.5"/>
    <circle cx="980" cy="80" r="3"/><circle cx="1090" cy="160" r="2"/><circle cx="1140" cy="70" r="2.5"/>
    <circle cx="80" cy="260" r="2"/><circle cx="200" cy="470" r="2.5"/><circle cx="70" cy="540" r="3"/>
    <circle cx="1130" cy="470" r="2.5"/><circle cx="1050" cy="560" r="2"/><circle cx="640" cy="52" r="2"/>
  </g>

  <!-- floating buzzword chips -->
  <g font-weight="700" font-size="30" text-anchor="middle">
    <g transform="translate(210 250) rotate(-8)">
      <rect x="-118" y="-32" width="236" height="64" rx="32" fill="#ffffff" opacity="0.94"/>
      <text x="0" y="10" fill="#6d28d9">DISRUPTIVE</text>
    </g>
    <g transform="translate(985 235) rotate(7)">
      <rect x="-95" y="-32" width="190" height="64" rx="32" fill="#22d3ee" opacity="0.95"/>
      <text x="0" y="10" fill="#0b1a3a">SCALABILE</text>
    </g>
    <g transform="translate(950 415) rotate(-6)">
      <rect x="-78" y="-30" width="156" height="60" rx="30" fill="#fde047"/>
      <text x="0" y="9" fill="#3b1d6e">EXIT €1M</text>
    </g>
    <g transform="translate(235 430) rotate(6)">
      <rect x="-58" y="-30" width="116" height="60" rx="30" fill="#f472b6"/>
      <text x="0" y="9" fill="#3b1d6e" font-size="28">MVP</text>
    </g>
  </g>

  <!-- rocket -->
  <g transform="translate(600 300)">
    <!-- flame -->
    <path d="M-26 120 Q0 235 26 120 Q0 150 -26 120 Z" fill="url(#flame)"/>
    <path d="M-13 120 Q0 185 13 120 Q0 138 -13 120 Z" fill="#fff7ed"/>
    <!-- body -->
    <path d="M0 -140 C60 -80 60 40 34 118 L-34 118 C-60 40 -60 -80 0 -140 Z" fill="url(#rocket)"/>
    <!-- window -->
    <circle cx="0" cy="-30" r="30" fill="#38bdf8" stroke="#1e3a8a" stroke-width="8"/>
    <circle cx="-9" cy="-40" r="8" fill="#e0f2fe" opacity="0.9"/>
    <!-- fins -->
    <path d="M-34 60 L-84 120 L-34 118 Z" fill="#7c3aed"/>
    <path d="M34 60 L84 120 L34 118 Z" fill="#7c3aed"/>
    <!-- nose accent -->
    <path d="M0 -140 C22 -108 30 -70 30 -40 L-30 -40 C-30 -70 -22 -108 0 -140 Z" fill="#c4b5fd" opacity="0.55"/>
  </g>

  <!-- title -->
  <text x="600" y="540" text-anchor="middle" font-size="86" font-weight="800" fill="#ffffff" letter-spacing="2">STARTUPPARO</text>
  <text x="600" y="590" text-anchor="middle" font-size="30" font-weight="600" fill="#c4b5fd">«e' tipo LinkedIn, ma per il mio paese»</text>
</svg>
